<svg width="90" height="87" viewBox="0 0 90 87" fill="none" xmlns="http://www.w3.org/2000/svg">
<g clip-path="url(#clip0_354_533)">
<g clip-path="url(#clip1_354_533)">
<path d="M46.0588 40.9411H63.9705C65.3838 40.9411 66.5294 42.0867 66.5294 43.4999V63.9705C66.5294 65.3838 65.3838 66.5294 63.9705 66.5294H23.0293C21.6161 66.5294 20.4704 65.3838 20.4704 63.9705V23.0293C20.4704 21.6161 21.6161 20.4705 23.0293 20.4705H43.4999C44.9132 20.4705 46.0588 21.6161 46.0588 23.0293V40.9411ZM25.5881 61.4117H40.9411V46.0588H25.5881V61.4117ZM25.5881 25.5882V40.9411H40.9411V25.5882H25.5881ZM46.0588 61.4117H61.4117V46.0588H46.0588V61.4117ZM63.9705 0H84.4412C85.8544 0 87 1.14561 87 2.55885V23.0295C87 24.4427 85.8544 25.5883 84.4412 25.5883H63.9705C62.5573 25.5883 61.4117 24.4427 61.4117 23.0295V2.55885C61.4117 1.14561 62.5573 0 63.9705 0ZM66.5292 5.1177V20.4706H81.8821V5.1177H66.5292ZM81.8821 38.3822C81.8821 36.969 83.0278 35.8234 84.441 35.8234C85.8542 35.8234 86.9998 36.969 86.9998 38.3822V76.7644C86.9998 82.4172 82.4174 86.9997 76.7646 86.9997H10.2352C4.58244 86.9998 0 82.4174 0 76.7646V10.2352C0 4.58244 4.58244 0 10.2352 0H48.6174C50.0307 0 51.1763 1.14561 51.1763 2.55885C51.1763 3.97208 50.0307 5.1177 48.6174 5.1177H10.2352C7.40875 5.1177 5.11753 7.40892 5.11753 10.2354V76.7646C5.11753 79.5909 7.40875 81.8823 10.2352 81.8823H76.7644C79.5909 81.8823 81.8821 79.5911 81.8821 76.7646V38.3822Z" fill="#D80000"/>
</g>
</g>
<defs>
<clipPath id="clip0_354_533">
<rect width="87" height="87" fill="white"/>
</clipPath>
<clipPath id="clip1_354_533">
<rect width="87" height="87" fill="white"/>
</clipPath>
</defs>
</svg>
