<svg width="87" height="85" viewBox="0 0 87 85" fill="none" xmlns="http://www.w3.org/2000/svg">
<g clip-path="url(#clip0_354_88)">
<path d="M82.5988 79.9794H79.7513V47.1252C79.7513 45.7486 78.635 44.6323 77.2584 44.6323H66.5777C65.2008 44.6323 64.0848 45.7486 64.0848 47.1252V79.9794H58.3897V59.4584C58.3897 58.0815 57.2735 56.9653 55.8969 56.9653H45.2159C43.8393 56.9653 42.7231 58.0815 42.7231 59.4584V79.9794H37.0282V71.7915C37.0282 70.4147 35.912 69.2985 34.5354 69.2985H23.8544C22.4778 69.2985 21.3615 70.4147 21.3615 71.7915V79.9794H15.6667V41.5115C28.8162 45.2519 42.575 34.7718 42.3686 21.0574C41.3042 -7.00592 1.06149 -7.00143 0 21.058C0 28.9193 4.30478 35.7939 10.6808 39.4496V82.4723C10.6808 83.8491 11.797 84.9651 13.1738 84.9651H82.5988C85.8817 84.852 85.9204 80.1085 82.5988 79.9794ZM4.98585 21.0578C4.98585 12.1259 12.2526 4.85924 21.1843 4.85924C42.6444 5.6736 42.6385 36.445 21.1843 37.2562C12.2526 37.2562 4.98585 29.9896 4.98585 21.0578ZM32.0423 79.9794H26.3474V74.2844H32.0423V79.9794ZM53.4038 79.9794H47.709V61.9512H53.4038V79.9794ZM74.7654 79.9794H69.0707V49.6182H74.7656L74.7654 79.9794Z" fill="#D80000"/>
<path d="M29.195 23.5508C32.4983 23.4282 32.4971 18.6867 29.195 18.5649H23.6774V10.3769C23.5564 7.07663 18.8141 7.07182 18.6914 10.3769V21.0575C18.6914 22.4344 19.8076 23.5506 21.1843 23.5506L29.195 23.5508Z" fill="#D80000"/>
<path d="M69.3245 28.0594L70.8041 28.4566L22.6097 56.2816C21.4172 56.9699 21.0087 58.4946 21.6972 59.687C22.2829 60.7014 23.7405 61.3857 25.1026 60.5992L73.2998 32.7728L72.9028 34.2593C72.5473 35.5894 73.3376 36.9559 74.6677 37.3112C76.0627 37.6838 77.3819 36.8106 77.7193 35.5463L79.6686 28.2512C80.0238 26.9219 79.2352 25.5567 77.9063 25.2002L70.6167 23.2441C67.3971 22.506 66.1645 27.0844 69.3245 28.0594Z" fill="#21201F"/>
</g>
<defs>
<clipPath id="clip0_354_88">
<rect width="87" height="84.9767" fill="white" transform="translate(0 0.0116577)"/>
</clipPath>
</defs>
</svg>
