<svg width="87" height="87" viewBox="0 0 87 87" fill="none" xmlns="http://www.w3.org/2000/svg">
<g clip-path="url(#clip0_354_365)">
<path d="M68.6447 43.1453C68.6447 57.2286 57.2279 68.6456 43.1446 68.6456C29.061 68.6456 17.6443 57.2286 17.6443 43.1453C17.6443 29.0617 29.061 17.645 43.1446 17.645C57.2279 17.645 68.6447 29.0617 68.6447 43.1453Z" stroke="#D80000" stroke-width="4.35" stroke-miterlimit="10" stroke-linecap="round" stroke-linejoin="round"/>
<path d="M55.8973 35.4954L40.597 50.7954L30.3969 40.5953" stroke="#21201F" stroke-width="4.35" stroke-miterlimit="10" stroke-linecap="round" stroke-linejoin="round"/>
<path d="M39.8382 3.39256C41.7443 1.76905 44.5466 1.76905 46.4525 3.39256L53.0798 9.24148L64.2947 8.37363C66.791 8.18049 69.0584 9.82764 69.6459 12.2614L71.8944 21.5734L81.693 27.4389C83.826 28.7498 84.6921 31.4153 83.7371 33.7295L79.8658 43.1096L83.7371 52.4897C84.6921 54.8041 83.826 57.4696 81.693 58.7805L71.8944 64.646L69.6459 73.958C69.0584 76.3916 66.791 78.0388 64.2947 77.8456L53.1894 76.9863L46.4525 82.8982C44.5466 84.5218 41.7443 84.5218 39.8382 82.8982L33.1013 76.9863L21.9962 77.8456C19.4999 78.0388 17.2326 76.3916 16.645 73.958L14.3876 64.609L4.60533 58.7805C2.47216 57.4696 1.60616 54.8041 2.5614 52.4897L6.43233 43.1096L2.5614 33.7295C1.60616 31.4153 2.47216 28.7498 4.60533 27.4389L13.5491 22.1254L16.645 12.2614C17.2326 9.82764 19.4999 8.18049 21.9962 8.37363L33.2111 9.24148L39.8382 3.39256Z" stroke="#D80000" stroke-width="4.35" stroke-miterlimit="10" stroke-linecap="round" stroke-linejoin="round"/>
</g>
<defs>
<clipPath id="clip0_354_365">
<rect width="87" height="87" fill="white"/>
</clipPath>
</defs>
</svg>
