<svg width="87" height="87" viewBox="0 0 87 87" fill="none" xmlns="http://www.w3.org/2000/svg">
<g clip-path="url(#clip0_354_483)">
<path d="M56.2942 0C39.3629 0 25.5881 13.7747 25.5881 30.7058C25.5881 38.2524 28.3264 45.1702 32.8591 50.5224L26.8677 56.5137L23.0293 52.6754L2.33945 73.3654C0.830765 74.8739 0 76.8796 0 79.013C0 83.417 3.58303 87 7.98693 87C10.1202 87 12.1259 86.1692 13.6344 84.6607L34.3246 63.9707L30.4862 60.1323L36.4776 54.1409C41.8298 58.6736 48.7478 61.4118 56.2942 61.4118C73.2254 61.4118 87 47.6371 87 30.7058C87 13.7747 73.2254 0 56.2942 0ZM10.0159 81.0419C9.47397 81.5838 8.75321 81.8823 7.98677 81.8823C6.40473 81.8823 5.11765 80.5953 5.11765 79.013C5.11765 78.2466 5.41618 77.5261 5.95813 76.984L23.0293 59.9128L27.0872 63.9707L10.0159 81.0419ZM56.2942 56.2942C42.1848 56.2942 30.7058 44.8151 30.7058 30.7058C30.7058 16.5965 42.1848 5.11765 56.2942 5.11765C70.4035 5.11765 81.8823 16.5965 81.8823 30.7058C81.8823 44.8151 70.4035 56.2942 56.2942 56.2942Z" fill="#D80000"/>
<path d="M56.2938 10.2352C45.0063 10.2352 35.8231 19.4182 35.8231 30.7058C35.8231 41.9934 45.0063 51.1765 56.2938 51.1765C67.5812 51.1765 76.7645 41.9934 76.7645 30.7058C76.7645 19.4182 67.5812 10.2352 56.2938 10.2352ZM56.2938 46.0588C47.8282 46.0588 40.9407 39.1715 40.9407 30.7058C40.9407 22.2403 47.8282 15.3529 56.2938 15.3529C64.7593 15.3529 71.6468 22.2403 71.6468 30.7058C71.6468 39.1715 64.7593 46.0588 56.2938 46.0588Z" fill="#D80000"/>
<path d="M53.7343 32.2051L50.4258 28.8968L46.8075 32.5154L53.7343 39.4425L65.7788 27.3978L62.1603 23.7792L53.7343 32.2051Z" fill="#21201F"/>
</g>
<defs>
<clipPath id="clip0_354_483">
<rect width="87" height="87" fill="white"/>
</clipPath>
</defs>
</svg>
