<svg width="186" height="263" viewBox="0 0 186 263" fill="none" xmlns="http://www.w3.org/2000/svg">
<path d="M133.554 80.5C137.479 80.5 140.688 77.3421 140.733 73.4253C140.89 61.608 141.359 58.0818 140.487 43.3968C139.145 20.7555 118.404 1.65151 95.6993 0.557943C71.5928 -0.59142 49.9495 15.4773 45.3869 38.1633C42.9958 50.0585 44.4274 62.1549 44.4033 74.1505C44.4033 78.1342 47.3659 80.5112 51.5045 80.4888C55.607 80.4665 58.0763 78.1342 58.6929 74.1282L58.8823 46.0527C59.8658 28.7006 75.4637 14.7408 93.2721 15.031C110.735 15.3099 125.863 29.7607 126.287 46.9676C126.522 56.3411 126.477 64.4202 126.387 73.2468C126.345 77.2305 129.575 80.5 133.566 80.5H133.554Z" fill="#FAB001"/>
<path d="M14.8747 189.419C10.7522 173.068 12.0428 155.433 18.5046 139.854C19.3479 137.753 20.581 135.764 20.9074 133.495C21.0102 132.601 21.2913 131.718 22.0438 131.159C24.0749 129.449 25.1448 126.968 26.6832 124.867C31.4011 118.139 37.0288 111.948 43.681 107.075C43.8503 112.127 43.7264 117.189 43.7596 122.252C43.7808 146.481 43.7143 170.71 43.7808 194.951C46.8818 192.615 49.8255 190.089 52.8389 187.642C66.1857 176.734 79.5084 165.782 92.8552 154.885C102.72 162.91 112.561 170.967 122.381 179.036C128.942 184.3 135.314 189.799 141.975 194.951C142.029 169.09 141.975 143.229 141.996 117.368C137.133 117.368 132.279 117.379 127.413 117.368C127.268 132.925 127.425 148.504 127.335 164.072C115.807 154.74 104.349 145.308 92.8552 135.931C81.3853 145.319 69.9153 154.729 58.4001 164.072C58.2761 137.552 58.4545 111.02 58.3094 84.5C36.0526 93.1391 17.6493 110.931 7.98673 132.634C0.393297 149.487 -1.82 168.643 1.49464 186.792C4.15736 201.175 10.2112 215 19.3025 226.5C22.4458 223.806 25.716 221.247 28.8049 218.487C22.2886 209.848 17.4135 199.957 14.8294 189.452L14.8747 189.419Z" fill="#D80000"/>
<path d="M175.58 128.14C168.625 114.834 158.282 103.287 145.84 94.746C130.965 84.5687 113.024 78.6893 94.9169 78.5H89.1236C80.7869 78.7561 72.5382 80.315 64.5592 82.6757C64.3439 87.0405 64.447 91.4055 64.4894 95.7706C78.1162 90.871 93.0343 89.4235 107.313 92.0626C124.217 95.0355 140.002 103.654 151.7 116.047C162.371 127.261 169.65 141.602 172.287 156.779C174.937 171.778 173.154 187.512 167.094 201.52C160.804 216.207 149.921 228.934 136.318 237.509C122.346 246.483 105.442 250.915 88.8083 250.013C72.4684 249.245 56.3559 243.421 43.5083 233.389C55.7465 222.988 68.4122 213.1 80.6172 202.667L93.1374 192.668L111.369 207.589C113.746 209.871 116.416 211.82 118.963 213.913C122.761 216.942 126.457 220.093 130.313 223.055C133.399 219.381 136.6 215.806 139.699 212.132C132.35 205.974 124.926 199.894 117.408 193.948L106.388 184.795C101.826 181.187 97.7119 177.39 93.1374 173.783C89.5875 176.722 85.6313 179.55 82.2178 182.646L73.8538 189.817C71.174 191.465 68.8397 193.592 66.3963 195.552C51.9359 207.477 37.4786 219.392 23 231.306C38.3698 248.777 60.7273 260.013 84.0549 262.095C102.196 263.787 120.833 260.157 136.87 251.583C150.133 244.579 161.617 234.335 170.023 222.008C179.769 207.845 185.347 190.931 185.935 173.805C186.533 158.049 182.983 142.148 175.601 128.151L175.58 128.14Z" fill="#D80000"/>
</svg>
