<svg width="120" height="66" viewBox="0 0 120 66" fill="none" xmlns="http://www.w3.org/2000/svg">
<g clip-path="url(#clip0_354_619)">
<path d="M106.786 20.0899C107.753 20.0899 108.543 19.3166 108.554 18.3575C108.593 15.4637 108.708 14.6003 108.493 11.0043C108.163 5.46003 103.055 0.781974 97.463 0.514189C91.5259 0.23274 86.1956 4.16755 85.0718 9.72276C84.483 12.6356 84.8355 15.5977 84.8296 18.5351C84.8296 19.5106 85.5593 20.0926 86.5785 20.0872C87.5889 20.0817 88.197 19.5106 88.3489 18.5296L88.3956 11.6547C88.6378 7.40558 92.4793 3.98721 96.8652 4.05825C101.166 4.12656 104.892 7.66516 104.996 11.8787C105.054 14.174 105.043 16.1524 105.021 18.3138C105.01 19.2893 105.806 20.0899 106.789 20.0899H106.786Z" fill="#FAB001"/>
<path d="M77.5519 46.8875C76.5415 42.8898 76.8578 38.5779 78.4415 34.7687C78.6482 34.2551 78.9504 33.7687 79.0304 33.214C79.0556 32.9953 79.1245 32.7795 79.3089 32.6429C79.8067 32.2248 80.0689 31.6181 80.4459 31.1045C81.6022 29.4595 82.9815 27.9457 84.6119 26.7543C84.6533 27.9894 84.623 29.2273 84.6311 30.4651C84.6363 36.3891 84.62 42.3132 84.6363 48.24C85.3963 47.6689 86.1178 47.0514 86.8563 46.453C90.1274 43.7861 93.3926 41.1081 96.6637 38.444C99.0815 40.4059 101.493 42.3761 103.9 44.3489C105.508 45.6359 107.07 46.9804 108.702 48.24C108.716 41.917 108.702 35.594 108.707 29.271C107.516 29.271 106.326 29.2737 105.133 29.271C105.098 33.0746 105.136 36.8837 105.114 40.6901C102.289 38.4084 99.4807 36.1023 96.6637 33.8097C93.8526 36.105 91.0415 38.4057 88.2193 40.6901C88.1889 34.2059 88.2326 27.7189 88.197 21.2346C82.7422 23.3469 78.2319 27.697 75.8637 33.0035C74.0027 37.1242 73.4602 41.8077 74.2726 46.2453C74.9252 49.762 76.4089 53.1422 78.637 55.9539C79.4074 55.2954 80.2089 54.6697 80.9659 53.9947C79.3689 51.8825 78.1741 49.4642 77.5407 46.8957L77.5519 46.8875Z" fill="#D80000"/>
<path d="M116.891 31.7986C115.192 28.5332 112.664 25.6997 109.624 23.6038C105.99 21.1063 101.606 19.6636 97.1815 19.6171H95.7659C93.7289 19.68 91.7133 20.0625 89.7637 20.6418C89.7111 21.7129 89.7363 22.7841 89.7467 23.8552C93.0763 22.6529 96.7215 22.2977 100.21 22.9453C104.341 23.6749 108.198 25.7898 111.056 28.8311C113.664 31.5828 115.442 35.1022 116.087 38.8266C116.734 42.5073 116.299 46.3684 114.818 49.8058C113.281 53.41 110.621 56.5333 107.298 58.6373C103.884 60.8397 99.7533 61.9273 95.6889 61.7059C91.6963 61.5174 87.7593 60.0883 84.62 57.6263C87.6104 55.0742 90.7052 52.6477 93.6874 50.0873L96.7467 47.6335L101.201 51.2951C101.782 51.8552 102.435 52.3334 103.057 52.8472C103.985 53.5904 104.888 54.3637 105.83 55.0905C106.584 54.1888 107.367 53.3117 108.124 52.41C106.328 50.8989 104.514 49.4069 102.677 47.9477L99.9844 45.7016C98.8696 44.8163 97.8644 43.8845 96.7467 42.9991C95.8793 43.7206 94.9126 44.4146 94.0785 45.1743L92.0348 46.934C91.38 47.3384 90.8096 47.8603 90.2126 48.3413C86.6793 51.2677 83.1467 54.1916 79.6089 57.1153C83.3644 61.4026 88.8274 64.1597 94.5274 64.6707C98.96 65.0861 103.514 64.1953 107.433 62.0912C110.673 60.3725 113.479 57.8586 115.533 54.8337C117.915 51.3579 119.278 47.2072 119.421 43.0046C119.567 39.1381 118.7 35.2361 116.896 31.8013L116.891 31.7986Z" fill="#D80000"/>
<path d="M21.5244 21.1556C21.797 21.3059 22.0944 21.3824 22.4165 21.3824C22.7002 21.3824 22.9865 21.3059 23.2784 21.1556C23.562 20.9944 23.7768 20.7813 23.9282 20.5108C24.0796 20.2293 24.154 19.9342 24.154 19.6254C24.154 19.3357 24.0796 19.0461 23.9282 18.7538C23.7575 18.4531 23.5399 18.2318 23.2784 18.0925C22.9865 17.9422 22.6974 17.8684 22.4165 17.8684C22.1026 17.8684 21.8053 17.9422 21.5244 18.0925C21.2518 18.2318 21.0343 18.4531 20.8746 18.7538C20.7039 19.0434 20.6185 19.3357 20.6185 19.6254C20.6185 19.9151 20.7039 20.2211 20.8746 20.5108C21.026 20.7813 21.2436 20.9972 21.5244 21.1556Z" fill="#FAB001"/>
<path d="M17.0308 21.1556C17.3034 21.3059 17.6008 21.3824 17.923 21.3824C18.2259 21.3824 18.5122 21.3059 18.7848 21.1556C19.0685 20.9944 19.2832 20.7813 19.4347 20.5108C19.5861 20.2293 19.6632 19.9342 19.6632 19.6254C19.6632 19.3357 19.5861 19.0461 19.4347 18.7538C19.2639 18.4531 19.0464 18.2318 18.7848 18.0925C18.493 17.9422 18.2039 17.8684 17.923 17.8684C17.6091 17.8684 17.3117 17.9422 17.0308 18.0925C16.7693 18.2318 16.5517 18.4531 16.3811 18.7538C16.2296 19.0434 16.1553 19.3357 16.1553 19.6254C16.1553 19.9369 16.2296 20.232 16.3811 20.5108C16.5435 20.7813 16.7582 20.9972 17.0308 21.1556Z" fill="#FAB001"/>
<path d="M37.905 18.1363C37.6132 17.986 37.3241 17.9122 37.0432 17.9122C36.7403 17.9122 36.4484 17.986 36.1648 18.1363C35.8922 18.2866 35.6692 18.5079 35.4985 18.7976C35.347 19.0872 35.2727 19.3796 35.2727 19.6692C35.2727 19.9807 35.347 20.2759 35.4985 20.5546C35.661 20.8141 35.8813 21.03 36.1648 21.1995C36.4374 21.3497 36.7293 21.4235 37.0432 21.4235C37.3571 21.4235 37.6324 21.3497 37.905 21.1995C38.2079 21.03 38.431 20.8141 38.5714 20.5546C38.7228 20.2731 38.7972 19.978 38.7972 19.6692C38.7972 19.3796 38.7228 19.0899 38.5714 18.7976C38.4007 18.5079 38.1776 18.2866 37.905 18.1363Z" fill="#FAB001"/>
<path d="M34.9527 22.642C33.7605 22.642 33.1658 23.224 33.1658 24.3854V34.4491H31.3512C31.2768 34.4218 31.1942 34.4054 31.1061 34.4054H26.7005V27.9021C26.7005 24.3471 24.908 22.5682 21.3258 22.5682H18.9633C15.3699 22.5682 13.5747 24.3471 13.5747 27.9021V32.6347C13.5747 33.296 13.6353 33.8863 13.7564 34.4081H5.38857C4.17704 34.4081 3.57127 33.7934 3.57127 32.561V29.7684C3.57127 28.566 2.97101 27.9649 1.77049 27.9649C0.569972 27.9649 0 28.5606 0 29.752V32.5009C0 36.1351 1.78701 37.955 5.35828 37.955H29.03C29.1044 37.9823 29.1842 38.0014 29.275 38.0014H34.9527C36.134 38.0014 36.7233 37.4057 36.7233 36.2143V24.4071C36.7233 23.2349 36.134 22.6502 34.9527 22.6502V22.642ZM23.1458 34.4054H18.7567C17.6967 34.3454 17.168 33.7387 17.168 32.5883V27.9021C17.168 26.7298 17.7517 26.1451 18.9247 26.1451H21.3313C22.5428 26.1451 23.1486 26.7161 23.1486 27.8584V34.4081L23.1458 34.4054Z" fill="#FAB001"/>
<path d="M31.6675 21.2021C31.9401 21.3525 32.2319 21.4262 32.5458 21.4262C32.8597 21.4262 33.135 21.3525 33.4076 21.2021C33.7105 21.0328 33.9335 20.8169 34.074 20.5573C34.2254 20.2758 34.2998 19.9807 34.2998 19.672C34.2998 19.3823 34.2254 19.0927 34.074 18.8003C33.9033 18.5106 33.6802 18.2893 33.4076 18.139C33.1158 17.9887 32.8267 17.9149 32.5458 17.9149C32.243 17.9149 31.951 17.9887 31.6675 18.139C31.3949 18.2893 31.1718 18.5106 31.0011 18.8003C30.8496 19.0899 30.7726 19.3823 30.7726 19.672C30.7726 19.9835 30.8496 20.2786 31.0011 20.5573C31.1635 20.8169 31.3838 21.0328 31.6675 21.2021Z" fill="#FAB001"/>
<path d="M33.9064 17.5815C34.168 17.7427 34.4654 17.822 34.7986 17.822C35.1124 17.822 35.3988 17.7427 35.6604 17.5815C35.944 17.4312 36.1588 17.2208 36.3102 16.9503C36.4616 16.6688 36.5387 16.3737 36.5387 16.065C36.5387 15.7753 36.4616 15.4857 36.3102 15.1933C36.1395 14.8927 35.922 14.6714 35.6604 14.532C35.3685 14.3817 35.0794 14.3079 34.7986 14.3079C34.4847 14.3079 34.1873 14.3817 33.9064 14.532C33.6448 14.6714 33.4273 14.8927 33.2566 15.1933C33.1052 15.4829 33.0281 15.7753 33.0281 16.065C33.0281 16.3765 33.1052 16.6716 33.2566 16.9503C33.4273 17.2208 33.6448 17.4312 33.9064 17.5815Z" fill="#FAB001"/>
<path d="M45.0249 18.016H43.2241C42.0318 18.046 41.4371 18.6663 41.4371 19.8795C41.4178 21.0217 42.0126 21.5928 43.2241 21.5928V36.1489C43.2241 37.3512 43.8298 37.9523 45.0414 37.9523C46.253 37.9523 46.7981 37.3512 46.7981 36.1489V19.7894C46.7981 18.6389 46.2089 18.046 45.0276 18.016H45.0249Z" fill="#FAB001"/>
<path d="M58.6329 22.5682H56.2704C52.6771 22.5682 50.8818 24.3498 50.8818 27.9157V32.632C50.8818 36.1761 52.6633 37.9495 56.2263 37.9495H60.373C60.1913 38.7501 59.6104 39.1518 58.6329 39.1518H57.2864C56.0941 39.1518 55.4994 39.7366 55.4994 40.9088V40.9389C55.4994 42.1111 56.0941 42.6959 57.2864 42.6959H58.6494C62.2207 42.6959 64.0077 40.8842 64.0077 37.2582V27.9157C64.0077 24.3498 62.2152 22.5682 58.6329 22.5682ZM60.4501 34.4054H56.2263C55.0561 34.4054 54.4696 33.7934 54.4696 32.5719V27.9157C54.4696 26.7243 55.0533 26.1287 56.2263 26.1287H58.6329C59.8444 26.1287 60.4501 26.6997 60.4501 27.842V34.4054Z" fill="#FAB001"/>
<path d="M24.3276 55.7739L24.3166 53.9759C24.2284 55.0854 23.2372 55.64 21.3428 55.64C18.7959 55.64 17.521 54.353 17.521 51.7763V49.4181C17.521 47.3004 19.2502 45.5844 21.3842 45.5844H25.6273C26.4423 45.5844 26.8525 46.0134 26.8525 46.8714V55.7712C26.8525 56.1373 26.5524 56.4325 26.1862 56.4325H24.9939C24.6277 56.4325 24.3276 56.1373 24.3276 55.7739ZM21.3704 48.1147C20.5058 48.1147 20.0735 48.5492 20.0735 49.4181V51.8337C20.0735 52.6917 20.5058 53.1207 21.3704 53.1207H24.3304V48.1147H21.3704Z" fill="#D80000"/>
<path d="M4.78871 55.6565C2.23899 55.6565 0.961365 54.364 0.961365 51.7736V43.1225C0.961365 42.2782 1.3854 41.8574 2.23623 41.8574C3.08705 41.8574 3.51109 42.2864 3.51109 43.1444V51.8283C3.51109 52.6945 3.94339 53.1262 4.80799 53.1262H6.93368L6.91165 45.9533C6.91165 45.109 7.33568 44.6882 8.18651 44.6882C9.03733 44.6882 9.4614 45.1172 9.4614 45.9752V51.8283C9.4614 52.6945 9.8937 53.1262 10.7583 53.1262H12.8619V43.1662C12.8619 42.3082 13.2942 41.8791 14.1588 41.8791C15.0234 41.8791 15.4144 42.3082 15.4144 43.1662V54.4023C15.4144 55.2384 14.9821 55.6647 14.1176 55.6784L4.78596 55.6565H4.78871Z" fill="#D80000"/>
<path d="M35.0187 54.4323C35.0187 55.2629 34.5947 55.6783 33.7439 55.6783H32.871C30.3213 55.6783 29.0437 54.3831 29.0437 51.7954V43.4421C29.0437 42.5978 29.4677 42.177 30.3185 42.177C31.1749 42.1688 31.6017 42.5923 31.5934 43.4421V44.6964L33.6668 44.7073C34.5589 44.6991 35.005 45.1199 35.005 45.9615C35.005 46.8031 34.5727 47.2021 33.7081 47.2157H31.5934V51.8583C31.5934 52.7163 32.0257 53.1453 32.8903 53.1453L33.7632 53.1562C34.6002 53.1562 35.0187 53.5825 35.0187 54.4323Z" fill="#D80000"/>
<path d="M38.3564 55.6783C37.5193 55.6783 37.1035 55.2493 37.1035 54.3912V42.5676C37.1035 41.7315 37.5276 41.3134 38.3784 41.3134C39.2293 41.3134 39.6533 41.7424 39.6533 42.6004V44.71H42.6518C45.2015 44.71 46.4792 46.0052 46.4792 48.5928V54.4158C46.4792 55.2601 46.0552 55.681 45.2044 55.681C44.3535 55.681 43.9295 55.2519 43.9295 54.3939V48.5409C43.9295 47.6747 43.4972 47.243 42.6326 47.243H39.6561V54.3939C39.6561 55.2519 39.2238 55.681 38.3592 55.681L38.3564 55.6783Z" fill="#D80000"/>
<path d="M62.5542 45.5406C63.3912 45.5406 63.807 45.9696 63.807 46.8276V58.6512C63.807 59.4873 63.383 59.9054 62.5321 59.9054C61.6813 59.9054 61.2573 59.4764 61.2573 58.6184V56.5089H58.2587C55.709 56.5089 54.4314 55.2164 54.4314 52.626V49.336C54.4314 46.8058 55.7145 45.5379 58.2781 45.5379H62.5515L62.5542 45.5406ZM58.2808 48.0818C57.4162 48.0818 56.9839 48.489 56.9839 49.306V52.6697C56.9839 53.5414 57.4162 53.9786 58.2808 53.9786H61.2573V48.0818H58.2808Z" fill="#D80000"/>
<path d="M51.8319 54.4022C51.8319 55.252 51.4134 55.6756 50.5791 55.6756C49.7448 55.6756 49.307 55.252 49.307 54.4022V47.3441C48.4507 47.3441 48.0294 46.9397 48.0459 46.1336C48.0459 45.2838 48.4672 44.852 49.307 44.8384L50.5681 44.8166C51.4107 44.8302 51.8292 45.251 51.8292 46.079V54.3994L51.8319 54.4022ZM50.4965 41.4884C50.659 41.4829 50.8159 41.5102 50.9701 41.5731C51.1243 41.6359 51.2592 41.726 51.3749 41.8436C51.4905 41.9611 51.5842 42.0977 51.653 42.2507C51.7218 42.4037 51.7548 42.565 51.7466 42.7316C51.7548 42.8929 51.7218 43.0458 51.653 43.1962C51.5842 43.3465 51.4905 43.4804 51.3749 43.5978C51.2592 43.7153 51.1243 43.8083 50.9701 43.8739C50.8159 43.9394 50.659 43.9694 50.4965 43.9612C50.3341 43.9694 50.1771 43.9394 50.0229 43.8739C49.8687 43.8083 49.7338 43.7153 49.6182 43.5978C49.5025 43.4804 49.4089 43.3465 49.34 43.1962C49.2685 43.0458 49.2382 42.8929 49.2465 42.7316C49.2382 42.565 49.2712 42.4037 49.34 42.2507C49.4089 42.0977 49.5025 41.9611 49.6182 41.8436C49.7338 41.726 49.8687 41.6359 50.0229 41.5731C50.1771 41.5102 50.3341 41.4829 50.4965 41.4884Z" fill="#D80000"/>
</g>
<defs>
<clipPath id="clip0_354_619">
<rect width="120" height="65" fill="white" transform="translate(0 0.5)"/>
</clipPath>
</defs>
</svg>
