<svg width="129" height="91" viewBox="0 0 129 91" fill="none" xmlns="http://www.w3.org/2000/svg">
<path d="M127.704 58.7695H123.118V82.3195H127.704V58.7695Z" fill="#471787"/>
<path d="M116.814 63.1559H112.23L112.276 73.0841C112.276 76.3818 110.377 78.1238 106.784 78.1238L106.75 78.1266C106.733 78.126 106.718 78.1243 106.703 78.1215H106.687C104.863 78.1215 103.161 77.6972 101.519 76.8265L101.349 76.7368L101.389 76.5493C101.54 75.8411 101.617 75.1294 101.617 74.4348V63.1559H97.0791V73.0444C97.0791 76.2932 95.1454 78.0829 91.6341 78.0829C89.9465 78.0829 88.4044 77.8182 86.7818 77.2502L86.5517 77.1696L86.6214 76.9378C86.8629 76.137 86.985 75.2947 86.985 74.4348V63.1559H82.401L82.4467 73.0432C82.4467 76.3875 80.5992 78.0829 76.9555 78.0829C75.5881 78.0829 74.0551 77.7949 72.5216 77.2497L72.2933 77.169L72.3629 76.9378C72.6044 76.1364 72.7266 75.3077 72.7266 74.4757V63.1559H68.1432L68.1883 73.0841C68.1883 76.3818 66.2893 78.1238 62.697 78.1238C60.7833 78.1238 59.0807 77.6853 57.3371 76.7436L57.1556 76.6453L57.2144 76.4477C57.4901 75.5224 57.6243 74.5699 57.6243 73.5351C57.6243 68.4721 53.2287 65.2012 46.4266 65.2012H31.3843L39.6205 56.8076H34.3611L26.3435 64.9785L28.8556 68.7828H46.8474C50.6669 68.7828 53.0397 70.5879 53.0397 73.4942C53.0397 76.35 50.6492 78.1238 46.8006 78.1238H21.5426V63.1559H13.3811C6.18792 63.1559 1.35498 67.0903 1.35498 72.657C1.35498 78.1471 5.99894 82.3183 12.9106 82.3183H17.0813V83.5735C17.0813 84.9582 15.2332 87.225 11.4433 87.225C9.56669 87.225 8.05087 86.9655 5.65067 86.2339L5.26415 86.1163V89.4532L5.38063 89.489C7.70603 90.2029 9.73626 90.55 11.5878 90.55C19.1618 90.55 21.4952 85.9715 21.4952 82.5727V82.3183H47.0347C50.4597 82.3183 53.2607 81.4084 55.1356 79.6868L55.3006 79.5352L55.473 79.6789C57.5387 81.4055 60.0365 82.3183 62.6953 82.3183C65.9976 82.3183 68.6233 81.5487 70.2887 80.0918L70.4326 79.9657L70.5947 80.0691C72.8722 81.514 75.2335 82.278 77.4231 82.278C80.3542 82.278 82.8035 81.5345 84.5055 80.1282L84.6408 80.0163L84.7938 80.102C87.4538 81.5862 89.8802 82.278 92.4294 82.278C95.621 82.278 98.0297 81.5038 99.5901 79.9782L99.7511 79.8203L99.9281 79.9612C101.861 81.4947 104.2 82.3092 106.694 82.3183H106.774C113.342 82.3086 116.814 79.5971 116.814 74.4757V63.1559ZM17.0813 78.1783H12.6571C8.4568 78.1783 5.63469 75.7354 5.63469 72.6246C5.63469 69.4082 8.39115 67.1351 12.6571 67.1351H17.0813V78.1783Z" fill="#471787"/>
<path d="M127.705 55.2443V57.0067H123.119V55.288C123.119 53.4654 124.372 52.2402 126.538 52.2402H127.627L127.193 53.8834H126.335C125.489 53.8834 125.082 54.3917 125.082 55.1386V55.2443H127.705Z" fill="#471787"/>
<path d="M114.522 88.7416C113.256 88.7416 112.231 87.7215 112.231 86.4629C112.231 85.2042 113.256 84.1836 114.522 84.1836C115.787 84.1836 116.812 85.2042 116.812 86.4629C116.812 87.7215 115.787 88.7416 114.522 88.7416Z" fill="#471787"/>
<path d="M64.5295 2.21826L40.0525 13.5301C38.2324 14.3713 37.0688 16.1859 37.0688 18.1818V24.8391L64.5295 12.1482L91.9908 24.8391V18.1818C91.9908 16.1859 90.8266 14.3713 89.0065 13.5301L64.5295 2.21826Z" fill="#FF4040"/>
<path d="M37.0688 27.1191V33.7764C37.0688 35.7723 38.233 37.5869 40.0525 38.4281L64.5295 49.7399L89.0065 38.4281C90.8266 37.5869 91.9908 35.7723 91.9908 33.7764V27.1191L64.5295 39.81L37.0688 27.1191Z" fill="#FF4040"/>
</svg>
