<svg width="65" height="64" viewBox="0 0 65 64" fill="none" xmlns="http://www.w3.org/2000/svg">
<path d="M16.4237 17.3333C16.4237 15.2237 17.0493 13.1614 18.2214 11.4073C19.3935 9.65313 21.0594 8.28596 23.0085 7.47862C24.9575 6.67129 27.1022 6.46005 29.1714 6.87163C31.2405 7.2832 33.1411 8.2991 34.6329 9.79086C36.1246 11.2826 37.1405 13.1832 37.5521 15.2524C37.9637 17.3215 37.7525 19.4662 36.9451 21.4153C36.1378 23.3644 34.7706 25.0303 33.0165 26.2023C31.2624 27.3744 29.2001 28 27.0904 28C24.2614 28 21.5483 26.8762 19.5479 24.8758C17.5475 22.8754 16.4237 20.1623 16.4237 17.3333ZM35.3331 50.1867C34.6266 49.5278 34.1233 48.6807 33.8823 47.7452C33.6413 46.8097 33.6728 45.8248 33.9731 44.9067C34.265 43.9758 34.8166 43.1476 35.5629 42.5193C36.3092 41.8911 37.2194 41.4889 38.1864 41.36L41.5197 40.88C41.5197 40.88 42.0531 40.8293 42.2131 40.5067L43.2797 38.3733C43.3652 38.2189 43.4023 38.0424 43.3864 37.8667C43.3532 37.7164 43.2794 37.578 43.1731 37.4667C41.7707 36.0564 40.0857 34.959 38.2289 34.2466C36.3721 33.5342 34.3855 33.223 32.3997 33.3333H21.7331C10.9064 33.3333 7.06641 41.2533 7.06641 48.0533C7.06641 54.1333 10.2931 57.3333 16.3997 57.3333H36.6397C37.0664 57.3333 37.3384 57.0133 37.4664 56.32L37.9997 53.2533C38.0283 53.1228 38.0211 52.987 37.9789 52.8603C37.9366 52.7336 37.8609 52.6206 37.7597 52.5333L35.3331 50.1867ZM58.7117 47.304C58.8695 47.1522 58.981 46.9589 59.0335 46.7464C59.0861 46.5339 59.0774 46.3109 59.0085 46.1031C58.9396 45.8953 58.8133 45.7113 58.6443 45.5722C58.4752 45.4332 58.2702 45.3448 58.0531 45.3173L52.7411 44.5627C52.5518 44.5364 52.3717 44.4647 52.2161 44.3537C52.0606 44.2428 51.9342 44.0958 51.8477 43.9253L49.5437 39.36C49.4358 39.1507 49.2723 38.9752 49.0713 38.8526C48.8702 38.7301 48.6392 38.6652 48.4037 38.6652C48.1683 38.6652 47.9373 38.7301 47.7362 38.8526C47.5351 38.9752 47.3717 39.1507 47.2637 39.36L44.9624 43.9253C44.8758 44.0956 44.7494 44.2425 44.5938 44.3535C44.4383 44.4644 44.2583 44.5362 44.0691 44.5627L38.7571 45.3173C38.5393 45.3438 38.3336 45.4317 38.1639 45.5706C37.9941 45.7095 37.8673 45.8938 37.7983 46.102C37.7293 46.3102 37.7208 46.5337 37.774 46.7465C37.8271 46.9593 37.9396 47.1527 38.0984 47.304L41.9384 50.968C42.0767 51.0986 42.1805 51.2615 42.2406 51.4421C42.3006 51.6226 42.315 51.8152 42.2824 52.0027L41.4051 57.0133C41.368 57.2456 41.3965 57.4836 41.4873 57.7006C41.5781 57.9175 41.7277 58.1049 41.9192 58.2415C42.1106 58.3781 42.3364 58.4586 42.5711 58.4738C42.8059 58.4891 43.0402 58.4386 43.2477 58.328L47.8531 55.96C48.0237 55.8718 48.213 55.8258 48.4051 55.8258C48.5972 55.8258 48.7864 55.8718 48.9571 55.96L53.5651 58.3307C53.7726 58.4406 54.0066 58.4905 54.2408 58.4748C54.4751 58.4592 54.7004 58.3786 54.8914 58.2421C55.0825 58.1056 55.2317 57.9186 55.3225 57.702C55.4132 57.4855 55.4418 57.2479 55.4051 57.016L54.5331 52C54.5007 51.8128 54.5148 51.6204 54.5744 51.44C54.6339 51.2595 54.7369 51.0965 54.8744 50.9653L58.7117 47.304Z" fill="#D80000"/>
</svg>
