<svg width="65" height="64" viewBox="0 0 65 64" fill="none" xmlns="http://www.w3.org/2000/svg">
<g clip-path="url(#clip0_354_796)">
<path d="M47.4665 29.3333C37.9091 29.3333 30.1331 37.1093 30.1331 46.6667C30.1331 56.224 37.9091 64 47.4665 64C57.0238 64 64.7998 56.224 64.7998 46.6667C64.7998 37.1093 57.0238 29.3333 47.4665 29.3333ZM54.9785 43.3093L46.3118 53.3093C46.1319 53.5167 45.9111 53.6848 45.6634 53.8032C45.4157 53.9216 45.1462 53.9877 44.8718 53.9973H44.7998C44.5372 53.9976 44.2771 53.9458 44.0346 53.8451C43.792 53.7445 43.5718 53.5968 43.3865 53.4107L38.7198 48.744C38.3446 48.3688 38.1338 47.86 38.1338 47.3293C38.1338 46.7987 38.3446 46.2899 38.7198 45.9147C39.095 45.5395 39.6039 45.3287 40.1345 45.3287C40.6651 45.3287 41.1739 45.5395 41.5491 45.9147L44.6985 49.0613L51.9571 40.6853C52.312 40.3101 52.7981 40.0865 53.3139 40.0612C53.8297 40.0359 54.3354 40.2108 54.7253 40.5494C55.1152 40.8881 55.3592 41.3643 55.4064 41.8785C55.4536 42.3928 55.3003 42.9054 54.9785 43.3093ZM36.6398 4.24L12.4265 16.4533L2.7998 11.7867L26.5865 0.213336C27.1198 -0.0533305 27.7598 -0.0533305 28.3198 0.213336L36.6398 4.24ZM52.1331 11.7867L27.4931 23.8133L18.2665 19.3333L16.9331 18.6667L41.1731 6.45334L42.5065 7.12L52.1331 11.7867ZM25.4931 41.0667C24.5729 44.7253 24.5729 48.5548 25.4931 52.2133V52.5867L1.89314 40.4533C1.56546 40.2833 1.29044 40.0271 1.09775 39.7122C0.905071 39.3973 0.802048 39.0358 0.799805 38.6667V15.2533L10.7998 20.1067V28.64C10.7998 29.7333 11.7065 30.64 12.7998 30.64C13.8931 30.64 14.7998 29.7333 14.7998 28.64V22.08L16.1331 22.72L25.5198 27.28L25.4931 41.0667ZM54.1598 25.0133C52.0531 24.3467 49.7865 24 47.4665 24C40.1598 24 33.6531 27.4667 29.5198 32.8533V27.2533L54.1331 15.28C54.1598 17.52 54.1598 21.8933 54.1598 25.0133Z" fill="#D80000"/>
</g>
<defs>
<clipPath id="clip0_354_796">
<rect width="64" height="64" fill="white" transform="translate(0.799805)"/>
</clipPath>
</defs>
</svg>
