<svg width="65" height="64" viewBox="0 0 65 64" fill="none" xmlns="http://www.w3.org/2000/svg">
<path d="M44.3765 37.8032H37.8496L33.7602 45.6709C33.6452 45.8856 33.4742 46.0649 33.2655 46.19C33.0567 46.315 32.818 46.3811 32.5747 46.3811C32.3314 46.3811 32.0927 46.315 31.884 46.19C31.6752 46.0649 31.5042 45.8856 31.3892 45.6709L27.2999 37.8032H20.7729C15.9776 37.8032 12.0747 41.7104 12.0747 46.5244V59.0194H15.8177L15.2183 49.9915C15.1917 49.6181 15.3115 49.2581 15.5646 48.9914C15.8177 48.7247 16.1774 48.5647 16.537 48.5647H48.6124C48.972 48.5647 49.3317 48.7247 49.5848 48.9914C49.8379 49.2581 49.9577 49.6181 49.9311 49.9915L49.3317 59.0194H53.0747V46.5244C53.0747 41.7104 49.1719 37.8032 44.3765 37.8032ZM17.9623 51.2317L18.7882 63.5H46.3613L47.1871 51.2317H17.9623ZM34.5594 58.6994H30.59C29.844 58.6994 29.2579 58.0993 29.2579 57.3659C29.2579 56.6324 29.844 56.0323 30.59 56.0323H34.5594C35.3054 56.0323 35.8915 56.6324 35.8915 57.3659C35.8915 58.0993 35.3054 58.6994 34.5594 58.6994ZM33.9334 33.6293H31.216C30.6033 33.6293 30.0172 33.576 29.4311 33.456V36.1363L32.5747 42.1638L35.7183 36.1363V33.456C35.1322 33.576 34.5461 33.6293 33.9334 33.6293ZM39.2349 14.9601H34.0133C33.667 14.9601 33.3473 14.8401 33.0942 14.6001L29.844 11.5197L27.6462 14.4401C27.3931 14.7735 26.9935 14.9601 26.5806 14.9601H24.0231V23.7613C24.0231 25.2815 24.5026 26.7084 25.3151 27.8685C26.1277 29.042 27.2732 29.9488 28.6186 30.4689C29.4311 30.7889 30.2969 30.9623 31.216 30.9623H33.9334C34.8525 30.9623 35.7183 30.7889 36.5308 30.4689C37.8836 29.9459 39.0466 29.0252 39.8668 27.828C40.687 26.6308 41.1261 25.2131 41.1264 23.7613V14.7334C40.5136 14.8801 39.8743 14.9601 39.2349 14.9601ZM20.9461 14.9601C19.7206 15.3202 18.8681 16.4403 18.8681 17.7339C18.8681 19.2007 19.9603 20.3875 21.359 20.5876V14.9601H20.9461ZM39.2349 1.62502H30.1371C29.2446 1.62502 28.4054 1.97173 27.7794 2.59848C27.1533 3.22523 26.807 4.07868 26.807 4.9588C26.807 5.70556 26.2076 6.29231 25.475 6.29231H24.2095C23.3263 6.29231 22.4793 6.64355 21.8548 7.26875C21.2303 7.89396 20.8794 8.74192 20.8794 9.62609V12.2931H25.9145L28.6186 8.7193C28.7309 8.56785 28.8749 8.44283 29.0406 8.35299C29.2063 8.26315 29.3896 8.21067 29.5776 8.19923C29.9506 8.15923 30.3236 8.29258 30.6033 8.55928L34.5461 12.2931H39.2349C40.1407 12.2931 41.0331 12.0664 41.819 11.6397C42.2586 11.3863 42.6715 11.0796 43.0045 10.7462C44.0036 9.73277 44.563 8.38593 44.563 6.95907C44.563 4.02534 42.1787 1.62502 39.2349 1.62502ZM43.7904 14.9868V20.6809C45.1891 20.4809 46.2813 19.2807 46.2813 17.8272C46.2813 16.3737 45.2024 15.1735 43.7904 14.9868Z" fill="#D80000"/>
</svg>
