<svg width="64" height="64" viewBox="0 0 64 64" fill="none" xmlns="http://www.w3.org/2000/svg">
<path fill-rule="evenodd" clip-rule="evenodd" d="M45.625 13.377C51.1738 14.6645 53.2964 17.9091 55.9575 22.375H45.625V13.377ZM13.1973 22.75C14.2838 22.75 15.0723 23.2744 15.0723 24.5C15.0723 25.5338 14.2359 26.3721 13.2026 26.375H1.875C0.839375 26.375 0 27.2149 0 28.25C0 29.2856 0.839375 30.125 1.875 30.125H18.75C19.7954 30.125 20.6324 30.9638 20.6324 32C20.6324 33.0356 19.793 33.875 18.7574 33.875H1.875C0.839375 33.875 0 34.7144 0 35.75C0 36.7856 0.839375 37.625 1.875 37.625H6V43.25C6 44.2856 6.83938 45.125 7.875 45.125H11.644C12.3159 48.4346 15.2402 50.875 18.6875 50.875C22.1348 50.875 25.0591 48.4346 25.731 45.125H44.769C45.4409 48.4346 48.3652 50.875 51.8125 50.875C55.2598 50.875 58.1841 48.4346 58.856 45.125H62.125C63.1606 45.125 64 44.2856 64 43.25V32C64 26.4985 58.1973 26.1333 58.1919 26.125H43.75C42.7144 26.125 41.875 25.2856 41.875 24.25V13H7.875C6.83938 13 6 13.8394 6 14.875V19H3.75C2.71438 19 1.875 19.8394 1.875 20.875C1.875 21.9106 2.71438 22.75 3.75 22.75H13.1973ZM54.2431 41.2569C55.5855 42.5991 55.5855 44.7764 54.2431 46.1186C52.084 48.2779 48.375 46.7417 48.375 43.6875C48.375 40.6338 52.084 39.0976 54.2431 41.2569ZM21.1181 41.2569C22.4605 42.5991 22.4605 44.7764 21.1181 46.1186C18.959 48.2779 15.25 46.7417 15.25 43.6875C15.25 40.6338 18.959 39.0976 21.1181 41.2569Z" fill="#D80000"/>
</svg>
