<svg width="59" height="58" viewBox="0 0 59 58" fill="none" xmlns="http://www.w3.org/2000/svg">
<path d="M28.2663 29.6507C36.3665 29.6507 42.9329 23.0842 42.9329 14.984C42.9329 6.88382 36.3665 0.317329 28.2663 0.317329C20.1661 0.317329 13.5996 6.88382 13.5996 14.984C13.5996 23.0842 20.1661 29.6507 28.2663 29.6507Z" fill="#D80000"/>
<path fill-rule="evenodd" clip-rule="evenodd" d="M44.2664 34.168C41.7945 34.2397 39.448 35.2721 37.725 37.0459C36.0019 38.8196 35.0381 41.1951 35.0381 43.668C35.0381 46.1409 36.0019 48.5164 37.725 50.2901C39.448 52.0639 41.7945 53.0963 44.2664 53.168C49.509 53.168 53.7677 48.9093 53.7677 43.6667C53.7677 38.424 49.509 34.168 44.2664 34.168ZM44.2664 38.168C47.301 38.168 49.7677 40.632 49.7677 43.6667C49.7677 46.7013 47.301 49.168 44.2664 49.168C41.2317 49.168 38.765 46.7013 38.765 43.6667C38.765 40.632 41.2317 38.168 44.2664 38.168Z" fill="#D80000"/>
<path fill-rule="evenodd" clip-rule="evenodd" d="M46.2666 36.1653V31.6667C46.2666 31.1362 46.0559 30.6275 45.6808 30.2525C45.3057 29.8774 44.797 29.6667 44.2666 29.6667C43.7362 29.6667 43.2275 29.8774 42.8524 30.2525C42.4773 30.6275 42.2666 31.1362 42.2666 31.6667V36.168C42.267 36.6984 42.478 37.207 42.8533 37.5818C43.2287 37.9566 43.7375 38.167 44.2679 38.1667C44.7984 38.1663 45.3069 37.9553 45.6818 37.5799C46.0566 37.2046 46.267 36.6958 46.2666 36.1653ZM50.9839 39.7787L54.1653 36.5947C54.5401 36.2198 54.7507 35.7114 54.7507 35.1813C54.7507 34.6512 54.5401 34.1428 54.1653 33.768C53.7904 33.3932 53.282 33.1826 52.7519 33.1826C52.2218 33.1826 51.7134 33.3932 51.3386 33.768L48.1546 36.9493C47.7806 37.3251 47.5706 37.8338 47.5706 38.364C47.5706 38.8942 47.7806 39.4029 48.1546 39.7787C48.5304 40.1527 49.039 40.3627 49.5693 40.3627C50.0995 40.3627 50.6081 40.1527 50.9839 39.7787ZM51.7653 45.6667H56.2666C56.797 45.6667 57.3057 45.456 57.6808 45.0809C58.0559 44.7058 58.2666 44.1971 58.2666 43.6667C58.2666 43.1362 58.0559 42.6275 57.6808 42.2524C57.3057 41.8774 56.797 41.6667 56.2666 41.6667H51.7653C51.2348 41.6667 50.7261 41.8774 50.3511 42.2524C49.976 42.6275 49.7653 43.1362 49.7653 43.6667C49.7653 44.1971 49.976 44.7058 50.3511 45.0809C50.7261 45.456 51.2348 45.6667 51.7653 45.6667ZM48.1546 50.384L51.3386 53.5653C51.5242 53.7509 51.7445 53.8982 51.987 53.9986C52.2295 54.0991 52.4895 54.1508 52.7519 54.1508C53.0144 54.1508 53.2743 54.0991 53.5168 53.9986C53.7593 53.8982 53.9797 53.7509 54.1653 53.5653C54.3509 53.3797 54.4981 53.1594 54.5985 52.9169C54.699 52.6744 54.7507 52.4145 54.7507 52.152C54.7507 51.8895 54.699 51.6296 54.5985 51.3871C54.4981 51.1446 54.3509 50.9243 54.1653 50.7387L50.9839 47.5547C50.6081 47.1806 50.0995 46.9706 49.5693 46.9706C49.039 46.9706 48.5304 47.1806 48.1546 47.5547C47.7806 47.9305 47.5706 48.4391 47.5706 48.9693C47.5706 49.4996 47.7806 50.0082 48.1546 50.384ZM42.2666 51.1653V55.6667C42.2666 56.1971 42.4773 56.7058 42.8524 57.0809C43.2275 57.456 43.7362 57.6667 44.2666 57.6667C44.797 57.6667 45.3057 57.456 45.6808 57.0809C46.0559 56.7058 46.2666 56.1971 46.2666 55.6667V51.1653C46.2666 50.6349 46.0559 50.1262 45.6808 49.7511C45.3057 49.376 44.797 49.1653 44.2666 49.1653C43.7362 49.1653 43.2275 49.376 42.8524 49.7511C42.4773 50.1262 42.2666 50.6349 42.2666 51.1653ZM37.5493 47.5547L34.3679 50.7387C34.1823 50.9243 34.0351 51.1446 33.9347 51.3871C33.8342 51.6296 33.7825 51.8895 33.7825 52.152C33.7825 52.4145 33.8342 52.6744 33.9347 52.9169C34.0351 53.1594 34.1823 53.3797 34.3679 53.5653C34.5535 53.7509 34.7739 53.8982 35.0164 53.9986C35.2589 54.0991 35.5188 54.1508 35.7813 54.1508C36.0437 54.1508 36.3037 54.0991 36.5462 53.9986C36.7887 53.8982 37.009 53.7509 37.1946 53.5653L40.3786 50.384C40.7526 50.0082 40.9626 49.4996 40.9626 48.9693C40.9626 48.4391 40.7526 47.9305 40.3786 47.5547C40.0028 47.1806 39.4942 46.9706 38.9639 46.9706C38.4337 46.9706 37.9251 47.1806 37.5493 47.5547ZM36.7653 41.6667H32.2666C31.7362 41.6667 31.2275 41.8774 30.8524 42.2524C30.4773 42.6275 30.2666 43.1362 30.2666 43.6667C30.2666 44.1971 30.4773 44.7058 30.8524 45.0809C31.2275 45.456 31.7362 45.6667 32.2666 45.6667H36.7653C37.2957 45.6667 37.8044 45.456 38.1795 45.0809C38.5546 44.7058 38.7653 44.1971 38.7653 43.6667C38.7653 43.1362 38.5546 42.6275 38.1795 42.2524C37.8044 41.8774 37.2957 41.6667 36.7653 41.6667ZM40.3786 36.9493L37.1946 33.768C37.009 33.5824 36.7887 33.4352 36.5462 33.3347C36.3037 33.2343 36.0437 33.1826 35.7813 33.1826C35.5188 33.1826 35.2589 33.2343 35.0164 33.3347C34.7739 33.4352 34.5535 33.5824 34.3679 33.768C34.1823 33.9536 34.0351 34.1739 33.9347 34.4164C33.8342 34.6589 33.7825 34.9189 33.7825 35.1813C33.7825 35.4438 33.8342 35.7037 33.9347 35.9462C34.0351 36.1887 34.1823 36.4091 34.3679 36.5947L37.5493 39.7787C37.9251 40.1527 38.4337 40.3627 38.9639 40.3627C39.4942 40.3627 40.0028 40.1527 40.3786 39.7787C40.7526 39.4029 40.9626 38.8942 40.9626 38.364C40.9626 37.8338 40.7526 37.3251 40.3786 36.9493Z" fill="#D80000"/>
<path fill-rule="evenodd" clip-rule="evenodd" d="M32.0958 55.016C31.399 54.1178 31.0538 52.9962 31.125 51.8616C31.1962 50.727 31.6789 49.6574 32.4824 48.8533L32.9998 48.3333H32.2664C31.0288 48.3333 29.8418 47.8417 28.9666 46.9665C28.0914 46.0913 27.5998 44.9043 27.5998 43.6667C27.5998 42.429 28.0914 41.242 28.9666 40.3668C29.8418 39.4917 31.0288 39 32.2664 39H32.9998L32.4824 38.48C31.645 37.6421 31.1575 36.5171 31.1189 35.3331C31.0802 34.1491 31.4934 32.9947 32.2744 32.104C30.9409 32.0008 29.6039 31.9492 28.2664 31.9493C19.4078 31.9493 11.5651 34.1653 6.69578 37.4853C2.98111 40.0187 0.933113 43.2373 0.933113 46.616V50.4827C0.932059 51.0783 1.0486 51.6683 1.27605 52.2187C1.50349 52.7692 1.83738 53.2694 2.25855 53.6906C2.67971 54.1117 3.17988 54.4456 3.73037 54.6731C4.28085 54.9005 4.87082 55.017 5.46645 55.016H32.0958Z" fill="#D80000"/>
</svg>
